<?xml version="1.0" encoding="UTF-8" standalone="no"?>
<!-- Created with Inkscape (http://www.inkscape.org/) -->

<svg
   version="1.1"
   id="svg2"
   width="841.33331"
   height="841.33331"
   viewBox="0 0 841.33331 841.33331"
   sodipodi:docname="Harisenin.com icon.ai"
   xmlns:inkscape="http://www.inkscape.org/namespaces/inkscape"
   xmlns:sodipodi="http://sodipodi.sourceforge.net/DTD/sodipodi-0.dtd"
   xmlns="http://www.w3.org/2000/svg"
   xmlns:svg="http://www.w3.org/2000/svg">
  <defs
     id="defs6">
    <clipPath
       clipPathUnits="userSpaceOnUse"
       id="clipPath16">
      <path
         d="M 0,631 H 631 V 0 H 0 Z"
         id="path14" />
    </clipPath>
    <clipPath
       clipPathUnits="userSpaceOnUse"
       id="clipPath24">
      <path
         d="M 0,631 H 631 V 0 H 0 Z"
         id="path22" />
    </clipPath>
  </defs>
  <sodipodi:namedview
     id="namedview4"
     pagecolor="#ffffff"
     bordercolor="#000000"
     borderopacity="0.25"
     inkscape:showpageshadow="2"
     inkscape:pageopacity="0.0"
     inkscape:pagecheckerboard="0"
     inkscape:deskcolor="#d1d1d1" />
  <g
     id="g8"
     inkscape:groupmode="layer"
     inkscape:label="Harisenin.com icon"
     transform="matrix(1.3333333,0,0,-1.3333333,0,841.33333)">
    <g
       id="g10">
      <g
         id="g12"
         clip-path="url(#clipPath16)">
        <g
           id="g18">
          <g
             id="g20" />
          <g
             id="g68">
            <g
               clip-path="url(#clipPath24)"
               opacity="0.919998"
               id="g66">
              <g
                 transform="translate(631,315.5)"
                 id="g28">
                <path
                   d="m 0,0 c 0,-174.246 -141.254,-315.5 -315.5,-315.5 -174.246,0 -315.5,141.254 -315.5,315.5 0,174.246 141.254,315.5 315.5,315.5 C -141.254,315.5 0,174.246 0,0"
                   style="fill:#003bde;fill-opacity:1;fill-rule:nonzero;stroke:none"
                   id="path26" />
              </g>
              <g
                 transform="translate(108.6908,270.5359)"
                 id="g32">
                <path
                   d="m 0,0 v 61.788 c 0,9.333 2.276,17.385 6.833,24.167 4.553,6.776 10.277,12 17.168,15.667 6.885,3.666 13.885,5.5 21,5.5 3.552,0 6.943,-0.391 10.167,-1.167 3.219,-0.781 5.943,-1.724 8.167,-2.833 l 9,37.334 c -4.448,2.219 -10.782,3.333 -19,3.333 -10.891,0 -21.282,-3.448 -31.168,-10.333 C 12.276,126.565 4.886,117.789 0,107.122 v 33.001 H -34.667 V -34.881 h 4.328 C -21.112,-22.495 -10.961,-10.839 0,0"
                   style="fill:#ffffff;fill-opacity:1;fill-rule:nonzero;stroke:none"
                   id="path30" />
              </g>
              <g
                 transform="translate(232.3602,410.6585)"
                 id="g36">
                <path
                   d="m 0,0 h -34.334 v -78.726 c 11.107,5.007 22.567,9.369 34.334,13.039 z"
                   style="fill:#ffffff;fill-opacity:1;fill-rule:nonzero;stroke:none"
                   id="path34" />
              </g>
              <g
                 transform="translate(295.6949,364.9908)"
                 id="g40">
                <path
                   d="m 0,0 c 0,5.776 1.552,10.167 4.667,13.167 3.109,3 6.943,5.052 11.5,6.167 C 20.719,20.443 25.334,21 30.001,21 36.667,21 43.944,19 51.835,15 59.72,11 66.778,5.886 73.002,-0.333 l 19.667,21.667 c -8,9.776 -18.115,16.886 -30.334,21.334 -12.224,4.442 -23.558,6.666 -34.001,6.666 -10.891,0 -21.115,-2.057 -30.667,-6.166 -9.558,-4.115 -17.282,-9.891 -23.168,-17.334 -5.89,-7.448 -8.833,-16.391 -8.833,-26.834 0,-4.063 0.359,-7.818 1.01,-11.324 11.371,2.305 22.975,3.963 34.767,4.966 C 0.577,-5.17 0.075,-2.732 0,0"
                   style="fill:#ffffff;fill-opacity:1;fill-rule:nonzero;stroke:none"
                   id="path38" />
              </g>
              <g
                 transform="translate(533.0262,275.392)"
                 id="g44">
                <path
                   d="M 0,0 C 7.446,-7.036 14.548,-14.433 21.257,-22.181"
                   style="fill:#000000;fill-opacity:1;fill-rule:nonzero;stroke:none"
                   id="path42" />
              </g>
              <g
                 transform="translate(455.0279,373.8244)"
                 id="g48">
                <path
                   d="m 0,0 c 9.776,6.109 21.219,9.167 34.334,9.167 7.334,0 14.219,-1.615 20.667,-4.834 6.443,-3.224 11.834,-7.724 16.167,-13.5 4.334,-5.781 6.834,-12.448 7.5,-20 v -2.334 H -19.334 C -16.224,-16.615 -9.781,-6.115 0,0 m 113.336,-58.835 0.333,14.667 c 0,16.886 -3.557,31.668 -10.667,44.335 -7.114,12.667 -16.667,22.61 -28.667,29.834 -12,7.219 -25.334,10.833 -40.001,10.833 -16,0 -30.782,-3.724 -44.334,-11.167 -13.558,-7.448 -24.449,-18.115 -32.668,-32 -4.158,-7.024 -7.256,-14.778 -9.311,-23.25 27.735,-7.478 53.912,-18.751 77.926,-33.252 z"
                   style="fill:#ffffff;fill-opacity:1;fill-rule:nonzero;stroke:none"
                   id="path46" />
              </g>
              <g
                 transform="translate(108.6908,270.5359)"
                 id="g52">
                <path
                   d="M 0,0 C -10.961,-10.839 -21.112,-22.495 -30.339,-34.881 H 0 Z"
                   style="fill:#0dad8d;fill-opacity:1;fill-rule:nonzero;stroke:none"
                   id="path50" />
              </g>
              <g
                 transform="translate(232.3602,235.6546)"
                 id="g56">
                <path
                   d="m 0,0 v 109.317 c -11.767,-3.67 -23.227,-8.033 -34.334,-13.039 V 0 Z"
                   style="fill:#0dad8d;fill-opacity:1;fill-rule:nonzero;stroke:none"
                   id="path54" />
              </g>
              <g
                 transform="translate(293.5282,317.8231)"
                 id="g60">
                <path
                   d="m 0,0 c 9.219,-3.891 18.61,-7.167 28.167,-9.834 6.443,-1.557 12.334,-3.281 17.667,-5.166 5.334,-1.891 9.61,-4.334 12.834,-7.334 3.219,-3 4.833,-7.167 4.833,-12.5 0,-5.558 -1.5,-9.948 -4.5,-13.167 -3,-3.224 -6.614,-5.558 -10.833,-7 -4.224,-1.448 -8.448,-2.167 -12.667,-2.167 -11.115,0 -20.501,1.943 -28.168,5.834 -7.666,3.885 -14.5,9.276 -20.5,16.167 l -23.334,-20.001 c 8.667,-11.115 19.167,-18.948 31.501,-23.5 12.333,-4.553 24.834,-6.834 37.501,-6.834 10.667,0 20.834,2.057 30.5,6.167 9.667,4.109 17.553,10.052 23.668,17.834 6.109,7.776 9.166,17.109 9.166,28 0,12.667 -2.833,22.501 -8.5,29.501 C 81.668,3 74.502,8.334 65.835,12 57.168,15.667 48.277,18.719 39.168,21.167 28.719,23.834 20,26.834 13,30.167 8.39,32.363 5.28,35.591 3.609,39.81 -8.182,38.807 -19.787,37.149 -31.158,34.843 -29.815,27.608 -27.119,21.53 -23,16.667 -16.891,9.443 -9.224,3.885 0,0"
                   style="fill:#0dad8d;fill-opacity:1;fill-rule:nonzero;stroke:none"
                   id="path58" />
              </g>
              <g
                 transform="translate(411.6936,275.4888)"
                 id="g64">
                <path
                   d="m 0,0 c 7.776,-13.448 18.61,-24.001 32.501,-31.667 13.885,-7.667 29.943,-11.501 48.167,-11.501 13.553,0 26.553,2.667 39.001,8.001 9.059,3.882 16.686,8.182 22.92,12.889 -6.709,7.748 -13.81,15.145 -21.256,22.181 C 118.934,-1.712 116.421,-3.342 113.669,-5 106.112,-9.557 96.221,-11.834 84.002,-11.834 67.111,-11.834 53.168,-7.224 42.168,2 31.167,11.219 24.667,23.719 22.667,39.501 H 69.281 C 45.267,54.002 19.091,65.275 -8.645,72.753 -10.654,64.47 -11.667,55.501 -11.667,45.834 -11.667,28.719 -7.781,13.443 0,0"
                   style="fill:#0dad8d;fill-opacity:1;fill-rule:nonzero;stroke:none"
                   id="path62" />
              </g>
            </g>
          </g>
        </g>
      </g>
    </g>
  </g>
</svg>
